<svg xmlns="http://www.w3.org/2000/svg" width="1280" height="720" viewBox="0 0 1280 720">
<rect width="1280" height="720" fill="#fff4df"/><rect width="1280" height="74" fill="#17261d"/><rect y="69" width="1280" height="5" fill="#ff5b3d"/>
<text x="28" y="48" font-family="Arial" font-size="24" fill="#fff4df">🖊️　🚜　⚽　👊　🐍　♦　⌨️　W　▣</text><text x="585" y="47" font-family="Arial" font-size="25" font-weight="bold" fill="#ffca3a">QUICK</text><text x="675" y="47" font-family="Arial" font-size="25" fill="#fff4df"> POLL</text><text x="1080" y="45" font-family="monospace" font-size="14" fill="#8bd5a9">● LIVE</text>
<rect x="270" y="130" width="740" height="520" fill="#17261d"/><rect x="260" y="120" width="740" height="520" fill="#fffdf8" stroke="#17261d" stroke-width="3"/>
<text x="315" y="170" font-family="monospace" font-size="15" font-weight="bold" letter-spacing="3" fill="#d8462d">ASK THE ROOM</text><text x="315" y="232" font-family="Arial" font-size="55" font-weight="bold" fill="#17261d">Create a poll</text><text x="315" y="287" font-family="Arial" font-size="55" font-weight="bold" fill="#d8462d">in seconds.</text>
<text x="315" y="338" font-family="monospace" font-size="13" font-weight="bold" fill="#17261d">QUESTION</text><rect x="315" y="350" width="630" height="56" fill="white" stroke="#17261d" stroke-width="2"/><text x="334" y="386" font-family="Arial" font-size="20" fill="#55645a">What should we do next?</text>
<text x="315" y="448" font-family="monospace" font-size="13" font-weight="bold" fill="#17261d">ANSWER CHOICES</text><rect x="315" y="460" width="300" height="50" fill="white" stroke="#17261d" stroke-width="2"/><text x="332" y="492" font-family="Arial" font-size="18" fill="#55645a">Play a game</text><rect x="630" y="460" width="315" height="50" fill="white" stroke="#17261d" stroke-width="2"/><text x="647" y="492" font-family="Arial" font-size="18" fill="#55645a">Draw together</text>
<rect x="315" y="544" width="190" height="48" fill="#ffca3a" stroke="#17261d" stroke-width="2"/><text x="339" y="574" font-family="Arial" font-size="14" font-weight="bold" fill="#17261d">＋ ADD A CHOICE</text><rect x="720" y="536" width="225" height="56" fill="#17261d"/><rect x="714" y="530" width="225" height="56" fill="#ff5b3d" stroke="#17261d" stroke-width="2"/><text x="746" y="565" font-family="Arial" font-size="16" font-weight="bold" fill="white">CREATE POLL →</text>
</svg>
