<svg xmlns="http://www.w3.org/2000/svg" width="1280" height="720" viewBox="0 0 1280 720">
<defs><radialGradient id="g" cx="80%" cy="0"><stop stop-color="#34245c"/><stop offset=".6" stop-color="#12111f"/></radialGradient></defs><rect width="1280" height="720" fill="url(#g)"/><style>text{font-family:Arial,sans-serif;fill:#f4f0ff}.mono{font-family:monospace}.muted{fill:#9995b5}.lime{fill:#c9ff62}.coral{fill:#ff6b6b}.panel{fill:#211e39;stroke:#3a355b}</style>
<rect width="1280" height="82" fill="#151326"/><line y1="82" x2="1280" y2="82" stroke="#3a355b"/><text x="44" y="50" font-size="25">🖊️　🚜　⚽　👊　🐍　♦　⌨️</text><text class="muted mono" x="445" y="30" font-size="11" letter-spacing="3">HEAD-TO-HEAD</text><text x="445" y="57" font-size="25" font-weight="700">TYPE<tspan class="lime">/</tspan>OFF</text><text class="lime mono" x="1000" y="48" font-size="12">● LIVE</text><rect x="1090" y="25" width="145" height="38" rx="6" fill="none" stroke="#c9ff62"/><text class="lime" x="1115" y="49" font-size="12" font-weight="700">RESET RACE</text>
<text class="muted mono" x="60" y="130" font-size="11" letter-spacing="2">DIFFICULTY</text><rect x="60" y="145" width="80" height="34" fill="#8c78ff"/><text x="82" y="167" font-size="12" font-weight="700">EASY</text><rect x="140" y="145" width="98" height="34" fill="none" stroke="#3a355b"/><text class="muted" x="158" y="167" font-size="12">MEDIUM</text><rect x="238" y="145" width="80" height="34" fill="none" stroke="#3a355b"/><text class="muted" x="258" y="167" font-size="12">HARD</text><text class="lime mono" x="940" y="165" font-size="13">RACE LIVE — START TYPING!</text>
<rect class="panel" x="60" y="205" width="1160" height="145" rx="14"/><text class="muted mono" x="85" y="240" font-size="11" letter-spacing="2">OPPONENT</text><text x="535" y="242" font-size="16" font-weight="700">Alex</text><text class="lime mono" x="1155" y="242" font-size="13">38%</text><rect x="85" y="270" width="1110" height="5" rx="3" fill="#12111f"/><rect x="85" y="270" width="420" height="5" rx="3" fill="#c9ff62"/><text class="muted mono" x="85" y="315" font-size="14">44 of 116 characters typed</text>
<rect class="panel" x="60" y="370" width="1160" height="300" rx="14"/><text class="muted mono" x="90" y="410" font-size="11" letter-spacing="2">YOU · TYPE BELOW</text><text x="560" y="412" font-size="16" font-weight="700">You</text><text class="lime mono" x="1150" y="412" font-size="13">52%</text>
<text x="90" y="480" font-size="34" font-weight="700"><tspan class="lime">A bright red kite danced above the </tspan><tspan class="coral" text-decoration="underline">pork</tspan><tspan class="muted">. Mia held</tspan></text><text class="muted" x="90" y="530" font-size="34" font-weight="700">the string and laughed as the wind carried it over the</text><text class="muted" x="90" y="580" font-size="34" font-weight="700">green trees.</text><text class="muted mono" x="90" y="635" font-size="12">Mistakes are <tspan class="coral">coral</tspan>. Backspace is allowed.</text>
</svg>
